<svg version="1.1" xmlns="http://www.w3.org/2000/svg"
     viewBox="0 0 512 512" fill="#ced0d6">
    <path d="M366.5,50.6C334.3,18.3,291.5,0.3,245.8,0c-0.3,0-0.7,0-1,0c-45.5,0-88.4,17.8-120.9,50.1
	C91.1,82.7,73,125.9,73,171.7c0,57.4,28.5,110.5,75.5,142.2c4,2.7,6.5,7.3,6.5,12.2v101.9c0,9.1,7.3,16.4,16.4,16.4h0
	c7.1,0,13.1,5,14.6,11.9c6,27,30.1,47.2,58.8,47.2c28.7,0,52.8-20.2,58.8-47.2c1.5-6.9,7.5-11.9,14.6-11.9h0
	c9.1,0,16.4-7.3,16.4-16.4V326.2c0-4.9,2.4-9.5,6.5-12.2c46.9-31.8,75.5-84.9,75.5-142.2C416.5,126,398.8,83,366.5,50.6z M244.8,474
	c-1,0-1.9,0-2.9-0.1c-18.5-1.7-17-29.4,1.6-29.4h2.5c18.6,0,20.2,27.7,1.6,29.4C246.7,474,245.7,474,244.8,474z M289.2,415h-90
	c-8.1,0-14.8-6.6-14.8-14.8v-0.1c0-8.1,6.6-14.8,14.8-14.8h91.1c8.1,0,14.8,6.6,14.8,14.8C305.1,400.2,305.1,415,289.2,415z
	 M312.8,296.7L312.8,296.7c-4.7,2.6-7.7,7.6-7.7,13v31.5c0,8.1-6.6,14.8-14.8,14.8h-16c-8.1,0-14.8-6.6-14.8-14.8v-82.1
	c0-3.9,1.6-7.7,4.3-10.4l40.6-40.6c5.8-5.8,5.8-15.1,0-20.9l0,0c-5.8-5.8-15.1-5.8-20.9,0l-28.4,28.4c-5.8,5.8-15.1,5.8-20.9,0
	L206,187.2c-5.8-5.8-15.1-5.8-20.9,0l0,0c-5.8,5.8-5.8,15.1,0,20.9l40.6,40.6c2.8,2.8,4.3,6.5,4.3,10.4v82.1
	c0,8.1-6.6,14.8-14.8,14.8h-16c-8.1,0-14.8-6.6-14.8-14.8v-31.5c0-5.4-2.9-10.4-7.7-13l0,0c-45.8-25-74.2-72.9-74.2-125
	c0-37.9,15-73.7,42.1-100.7c27-26.8,62.5-41.5,100.1-41.5c0.3,0,0.6,0,0.8,0c37.8,0.2,73.3,15.1,100,41.9
	c26.7,26.8,41.4,62.5,41.4,100.3C387,223.8,358.5,271.7,312.8,296.7z"/>
</svg>
